PathFileType	4	(X/Y/Z)	s04c0103.trc
DataRate	CameraRate	NumFrames	NumMarkers	Units	OrigDataRate	OrigDataStartFrame	OrigNumFrames
200	200	4	50	mm	200	750	2000
Frame#	Time	racr			lacr			c7			jug			rlel			rdr			llel			ldr			s2			lic			ric			lasi			rasi			rpsi			lpsi			rgt			lgt			rth1			rth2			rth3			rth4			rlfc			rmfc			rsh1			rsh2			rsh3			rsh4			rlmal			rmmal			rcal			rtoe			rmt5			lth1			lth2			lth4			lth3			llfc			lmfc			lsh1			lsh2			lsh3			lsh4			llmal			lmmal			lcal			ltoe			lmt5			SBIKE			LBIKE			RBIKE			
		X1	Y1	Z1	X2	Y2	Z2	X3	Y3	Z3	X4	Y4	Z4	X5	Y5	Z5	X6	Y6	Z6	X7	Y7	Z7	X8	Y8	Z8	X9	Y9	Z9	X10	Y10	Z10	X11	Y11	Z11	X12	Y12	Z12	X13	Y13	Z13	X14	Y14	Z14	X15	Y15	Z15	X16	Y16	Z16	X17	Y17	Z17	X18	Y18	Z18	X19	Y19	Z19	X20	Y20	Z20	X21	Y21	Z21	X22	Y22	Z22	X23	Y23	Z23	X24	Y24	Z24	X25	Y25	Z25	X26	Y26	Z26	X27	Y27	Z27	X28	Y28	Z28	X29	Y29	Z29	X30	Y30	Z30	X31	Y31	Z31	X32	Y32	Z32	X33	Y33	Z33	X34	Y34	Z34	X35	Y35	Z35	X36	Y36	Z36	X37	Y37	Z37	X38	Y38	Z38	X39	Y39	Z39	X40	Y40	Z40	X41	Y41	Z41	X42	Y42	Z42	X43	Y43	Z43	X44	Y44	Z44	X45	Y45	Z45	X46	Y46	Z46	X47	Y47	Z47	X48	Y48	Z48	X49	Y49	Z49	X50	Y50	Z50	
750	3.7500	490.772604	1350.663227	-139.771441	497.172918	1341.285797	-404.546264	472.209567	1405.750239	-276.451929	439.901724	1251.380085	-278.047234	436.824519	1058.071022	-5.507477	681.263153	924.590297	-105.890136	470.443464	1084.613541	-558.935404	689.606846	909.283427	-489.907100	-80.544325	1156.780335	-309.690640	82.763475	1170.717715	-453.940695	56.570931	1188.924637	-135.626473	124.831783	1129.278312	-403.493536	111.362182	1151.350998	-176.234672	-60.608750	1206.985603	-266.986561	-55.913510	1204.484088	-338.528472	24.728706	1124.177093	-119.799784	52.109517	1070.255651	-480.534082	154.102349	1019.318745	-106.814353	233.201284	981.831914	-119.892659	284.429920	914.427059	-126.322720	253.607339	1010.151481	-135.018510	383.174277	809.053550	-151.938419	361.804226	783.063438	-262.080364	347.367952	688.435502	-120.469680	347.889297	597.388807	-130.462137	302.486750	524.289998	-131.494547	378.525732	592.206317	-153.717780	276.082192	373.430001	-129.088374	293.110201	380.588458	-214.992990	206.478244	336.695440	-163.189972	507.091492	331.544817	-166.888416	443.971527	305.394751	-108.273677	113.455077	1006.597139	-494.639947	192.102588	970.542517	-498.006797	214.311320	996.064476	-485.490257	243.939542	898.372980	-507.110336	336.233193	778.046904	-487.914994	369.179594	751.406439	-377.742915	268.873399	680.046116	-504.723018	223.027695	613.160607	-473.878054	144.572948	571.785246	-467.580224	244.012169	599.243591	-443.743918	34.664590	478.062315	-451.081252	35.805723	485.376210	-362.694373	-41.882959	509.528622	-406.387114	184.531872	306.625452	-415.558170	105.071806	323.900463	-474.818600	-185.592240	929.949698	-287.964170	-17.552342	78.788057	-485.673805	-17.576895	79.133966	-84.921274	
751	3.7550	491.821347	1349.649948	-139.605649	497.335767	1341.330908	-405.078237	473.063495	1405.534358	-275.992342	440.317662	1251.351113	-278.587198	437.665892	1057.920180	-3.784723	680.989555	924.100455	-105.219284	470.735265	1084.860557	-559.603775	689.792332	909.546677	-489.852147	-80.365957	1158.407791	-308.806786	82.456955	1172.650538	-453.215523	57.513710	1189.245820	-134.788022	124.675602	1131.164347	-403.153157	112.139725	1151.695718	-175.507146	-59.976122	1208.281204	-265.416165	-55.634751	1206.272641	-336.637166	25.174134	1124.775398	-119.542099	52.648708	1073.385243	-480.519403	153.129534	1017.415449	-106.161855	231.347832	978.253911	-119.328469	281.068865	909.654493	-125.588888	252.342501	1006.078423	-134.467813	377.873962	801.725968	-151.101644	356.181638	774.661887	-261.438838	343.731934	680.068943	-119.490080	345.341599	589.123148	-129.877749	300.805841	515.561934	-130.532645	375.601401	584.447997	-153.682859	275.350849	364.494675	-128.362026	292.210313	371.530712	-214.310988	205.489705	328.611272	-162.236770	506.088158	319.855944	-167.582335	442.938597	294.848781	-108.422296	114.766605	1010.510068	-493.796272	194.052996	975.796769	-497.662523	215.867521	1001.466867	-484.817803	247.022888	904.625327	-507.508664	340.301845	785.097417	-488.494717	377.987634	760.034354	-376.692944	272.620823	687.707457	-505.617567	225.991627	621.305022	-474.410059	146.854514	580.629027	-467.495978	246.725789	607.467442	-444.191783	36.442733	488.159862	-451.487525	37.296490	495.891379	-363.408679	-40.377291	519.788223	-406.854374	186.197971	317.149549	-415.545408	106.855497	334.188648	-474.886291	-185.524814	929.977470	-287.973231	-17.534352	78.814428	-485.672425	-17.551631	79.145225	-84.907233	
752	3.7600	493.020596	1348.781000	-139.563953	497.575012	1341.510535	-405.737939	474.085620	1405.297299	-275.791959	440.803339	1251.426181	-279.142734	438.997516	1058.094445	-2.013941	681.319940	923.850210	-104.991881	471.063700	1085.304231	-560.281045	690.020885	909.785712	-489.773151	-80.127526	1160.111231	-307.937004	82.107812	1174.925892	-452.490190	58.438136	1189.675672	-133.902104	124.423727	1133.137017	-402.606142	112.938845	1151.936727	-174.903329	-59.234443	1209.462181	-263.891295	-55.395288	1208.384731	-335.169802	25.616603	1125.220055	-119.217878	53.164303	1076.891302	-480.568168	152.040858	1015.326851	-105.418328	229.459395	974.416524	-118.581050	277.214796	904.734426	-124.625948	250.852565	1001.631404	-133.798768	372.125563	794.261052	-150.146896	346.982593	765.995296	-260.166725	339.224575	671.958319	-118.340994	341.847044	581.043943	-129.025433	298.234667	506.951516	-129.454656	371.998879	576.836059	-153.259650	273.837511	355.496496	-127.530119	290.472596	362.631969	-213.439659	203.918832	320.379549	-161.135840	504.229321	308.528620	-168.082227	441.057439	284.028599	-108.879021	116.035509	1014.706396	-492.642125	195.939722	981.353065	-497.346913	217.368065	1007.271088	-484.179158	249.916417	911.132002	-507.916521	344.773238	792.608514	-489.360077	376.493361	766.362510	-379.093116	276.538542	695.544810	-506.372010	229.284456	629.708707	-474.951645	149.722037	589.688370	-468.054447	249.757935	615.812309	-444.595376	38.693430	498.207041	-451.863027	39.324940	506.247050	-363.971467	-38.258350	529.945611	-407.324661	188.568572	327.724222	-415.434195	109.272698	344.471951	-474.910694	-185.452570	930.012107	-287.920939	-17.536316	78.886691	-485.649307	-17.545877	79.132907	-84.914938	
753	3.7650	494.300897	1348.331208	-139.652183	497.881586	1341.752306	-406.396931	475.209054	1405.166061	-275.883948	441.370754	1251.530280	-279.845455	440.747824	1058.683778	-0.350278	681.815457	923.521309	-104.726639	471.354727	1085.921926	-560.934886	690.305450	910.068518	-489.620749	-80.111980	1161.859434	-306.824186	81.844909	1177.372729	-451.803265	59.501314	1190.011683	-133.004770	124.260019	1135.315732	-402.250935	113.830617	1152.066471	-174.340328	-58.366057	1210.924729	-262.478986	-55.287330	1210.695317	-333.647092	26.254846	1125.702761	-118.705270	53.668548	1080.687800	-480.650938	150.958890	1013.411608	-104.700932	227.147937	970.592602	-116.948171	273.213987	899.400797	-123.512001	249.340296	997.358453	-132.738701	365.948840	786.790095	-148.814453	340.805796	758.598117	-258.430283	333.869612	663.878744	-116.924780	337.411105	573.095048	-127.499738	294.596047	498.397583	-128.540708	367.488847	569.263948	-152.347199	271.498916	346.536561	-126.554449	288.041248	353.697304	-212.486586	201.629010	312.087650	-159.888941	501.824464	297.663167	-168.812915	438.802505	273.829068	-108.947795	117.324139	1019.432085	-491.870027	197.644400	987.283960	-496.983894	218.817332	1013.363569	-483.582147	252.592670	917.935174	-508.366248	349.182897	800.404322	-490.194964	375.904492	772.708397	-381.377275	280.664372	703.801035	-507.081852	232.774364	638.220280	-475.412929	153.108110	598.788431	-468.566820	253.275302	623.994486	-445.761234	41.549783	508.186404	-452.220696	42.094430	516.277019	-364.412738	-35.581897	539.970103	-407.828481	191.491236	337.948335	-415.134511	112.315146	354.655084	-474.906410	-185.399313	930.041471	-287.834037	-17.524038	78.921110	-485.632541	-17.541044	79.170945	-84.911071	
